<?xml version="1.0" encoding="UTF-8"?>
<svg id="_图层_2" data-name="图层 2" xmlns="http://www.w3.org/2000/svg" viewBox="0 0 1087.01 1296.02">
  <g id="_图层_1-2" data-name="图层 1">
    <path d="m579.54,518.85c-13.66,12.17-28.03,20.19-43.73,25.89-5.45,1.98-11.48,2.77-16.47,5.52-7.79,4.29-15.49,9.1-22.2,14.89-17.4,15.02-34.68,30.23-51.16,46.24-14.5,14.08-31.24,20.27-51.23,20.54-33.43.45-64.93-6.26-94.3-22.41-.16-.09-.47.09-1.04.21,11.64,12.72,25.2,22.13,41.25,28.17,25.15,9.47,51.08,12.83,77.84,11.48,25.51-1.29,51.01-.72,76.09,4.54,28.95,6.07,54.19,18.95,73.14,42.47,7.14,8.87,13.2,18.38,16.18,29.48.87,3.26.6,6.82.9,10.25.65,7.41,1.17,14.84,2.04,22.22,1.22,10.37-2.43,18.84-9.33,26.31-1.63,1.76-3.2,3.91-3.89,6.16-4.97,16.06-23.84,27.8-40.23,22.99-3.37-.99-5.67-.11-8.38,2.27-12.14,10.69-25.79,9.91-39.69,4.13-15.78-6.56-29.37-16.6-42.97-26.81-23.31-17.5-49.23-29.16-78.33-33.61-29.47-4.51-58.38-.84-87.3,4.49-16.67,3.07-33.32,6.58-50.51,4.8-32.72-3.39-57.69-18.66-73.92-47.59-1.06-1.89-2.14-3.76-3.12-5.69-.88-1.73-1.63-3.53-2.67-5.84-2.22,12.88,10.18,42.17,23.55,56.9,14.68,16.16,32.62,25.97,55.7,27.91-2.36,2.57-3.93,4.58-5.8,6.25-20.6,18.42-41.22,36.83-61.88,55.17-29.58,26.27-35.57,58.87-24.75,95.37,7.9,26.65,23.93,47.99,45.95,64.89,29.95,22.98,59.8,46.1,89.81,69,25.89,19.76,52.08,39.13,77.91,58.97,28.61,21.98,56.99,44.27,85.42,66.48,22.43,17.52,44.88,35,67.15,52.71,10.81,8.6,21.23,17.68,31.85,26.52,1.1.92,2.35,1.65,3.53,2.47-.38.48-.76.96-1.14,1.45-9.65-5.4-19.6-10.31-28.89-16.27-39.01-25.06-77.89-50.31-116.67-75.71-30.57-20.02-60.98-40.29-91.38-60.58-19.89-13.28-39.57-26.87-59.45-40.16-23.34-15.59-46.88-30.9-70.2-46.51-20.6-13.79-41.03-27.92-58.51-45.65-30.74-31.17-50.43-68.59-61.03-110.9-8.66-34.57-10.37-69.62-7.32-105.05,4.07-47.39,16.96-92.63,32.45-137.32,9.49-27.39,21.92-53.45,34.49-79.48,1.22-2.53,2.31-5.12,3.81-8.46-42.19-16.47-76.98-42.82-105.67-77.55,6.47-3.64,13-6.83,19.03-10.79,17.8-11.69,28.96-28.54,33.9-48.83,5.89-24.18,10.19-48.74,15.21-73.14.94-4.56,1.72-9.18,3.12-13.6,1.2-3.79.62-6.36-2.49-9.05-9.17-7.95-18.5-15.8-26.99-24.45-21.6-22.03-38.65-47.05-45.72-77.55-1.9-8.18-1.85-17.22-.68-25.59,1.73-12.4,11.87-17.42,22.62-20.49,20.59-5.88,41.8-6.26,62.93-5.21,16.74.83,33.41,3.15,50.1,4.88,3.21.33,5.85.26,8.53-2.38,18.06-17.76,37.94-33.2,59.57-46.44,30.95-18.94,64.13-32.66,99.01-42.22,28.27-7.75,57.04-12.8,86.46-13.77,2.79-.09,6.2-1.73,8.14-3.77,9.17-9.63,17.87-19.7,26.84-29.52,13.89-15.22,27.34-30.92,44.57-42.64,2.32-1.58,4.82-2.98,7.41-4.04,8.96-3.68,16.58-1.74,22.74,5.78,8.38,10.22,12.92,22.3,16.93,34.7,7.11,22,8.28,44.74,8.72,67.56.07,3.77,1.49,5.63,4.53,7.83,19.65,14.26,39.22,28.64,58.42,43.49,15.94,12.33,31.49,25.31,49.99,33.6,10.36,4.64,21.48,7.74,32.48,10.73,3.31.9,4.97,2.34,5.83,5.02,4.94,15.47,10,30.9,14.39,46.52,1.12,3.99,2.74,5.16,6.47,5.65,15.32,2,30.74,3.57,45.86,6.61,28.6,5.74,55.81,15.42,81.23,30.13,23.23,13.44,43.08,30.02,55.6,54.25,12.36,23.93,14.24,48.79,6.29,74.46-.2.63-.5,1.24-.8,1.83-.14.28-.41.51-.96,1.18-12.87-6.16-25.88-12.32-38.83-18.62-23.29-11.32-46.5-22.93-71.87-28.97-15.51-3.69-31.11-7.15-47.36-5.14-15.7,1.94-28.56,9.39-40.06,19.63-12.55,11.17-24.9,22.57-37.36,33.85-1.09.99-2.33,1.82-4.45,3.46,5.23-15.13,6.81-29.62,5.37-44.43-1.43-14.76-6.38-28.38-13.87-41.17.41-.37.83-.75,1.24-1.12,3.36,2.86,6.86,5.56,10.04,8.61,3.22,3.08,6.12,6.5,9.38,10,17.45-41.53,19.16-83.86,9.7-126.36-2.17,9.57-3.87,19.91-6.89,29.85-7.97,26.16-25.39,43.32-51.8,50.41-19.71,5.29-38.9,1.2-57.6-5.75-2.74-1.02-5.48-2.05-8.22-3.07-.28.33-.55.66-.83.98,3.11,4.17,5.73,8.85,9.42,12.41,12.19,11.77,24.67,23.25,37.3,34.55,1.84,1.65,5.04,2.2,7.69,2.45,6.45.6,12.96.48,19.41,1.12,6.57.65,10.95,4.78,13.4,10.63,7.27,17.3,2.68,45.78-14.67,57.78-8.15,5.63-17.07,7.3-26.51,6.58-11.26-.86-21.79-3.99-30.53-11.76-9.17-8.15-12.42-18.84-7.2-31.19,3.27-7.75,1.41-12.21-4.46-17.18-14.61-12.37-28.8-25.23-43.23-37.81-2.07-1.81-4.58-3.12-7.35-4.98,2.1,14.49-1.62,27.32-6,39.89-13.39,38.39-38.39,67.39-74.6,85.27-44.98,22.21-91.87,28.65-139.66,8.59-10.44-4.38-19.81-11.38-29.53-17.41-3.23-2.01-5.99-4.77-9.68-7.76,10.66-16.34,20.11-31.73,30.48-46.48,16.7-23.77,35.51-45.77,58.21-64.14,22.45-18.16,46.81-32.72,75.46-38.77,20.5-4.33,40.64-3.37,60.01,5.45,1.16.53,2.38.9,3.85,1.45-7.59-16.89-18.06-30.85-33.54-40.58-12.64-7.95-26.8-11.6-41.37-13.37-27.46-3.33-54.2.78-79.92,10.39-30.48,11.39-56.77,29.41-79.69,52.58-26.36,26.64-46.34,57.76-65.21,89.82-12.32,20.94-25.65,41.29-42.38,59.08-17.12,18.21-37.46,31.12-63.7,36.62,5.15,3.73,9.25,6.85,13.5,9.76,28.59,19.55,60.4,31.66,93.64,40.48,37.01,9.82,74.62,12.62,112.79,10.32,32.51-1.96,63.74-9.48,93.99-20.93,14.69-5.56,28.58-13.2,42.94-19.65,1.89-.85,4.87-1.05,6.63-.15,33.36,17.04,68.69,21.58,105.61,17.89,18.24-1.82,35.08-7.89,53.15-15.39Zm60.95-302.62c-18.14-7.44-32.68-20.14-48.02-31.71-8.72-6.58-17.94-12.65-27.51-17.89-13.96-7.65-29.22-11.78-45.13-9.27-27.75,4.39-40.51,28.13-38.76,53.7,1.37,19.97,9.75,37.41,21.27,53.41,3.31,4.59,7.45,8.58,11.8,13.5-.57-8.01-1.91-14.66-1.35-21.16,1.99-23.34,10.75-38.42,32.46-46.06,12.9-4.54,26.26-4.33,39.38-1.34,18.35,4.17,36.7,7.91,55.87,6.83ZM114.18,252.9c-11-11.57-24.32-19.55-38.55-26.13-9.37-4.33-18.94-8.16-29.57-8.01-8.01.12-12.01,3.27-13.54,11.01-1.81,9.18.37,17.86,3.94,26.19,7.04,16.41,17.67,30.43,30.12,43.03,5.96,6.03,12.61,11.37,19.52,17.54,6.01-23.6,15.24-44.25,28.08-63.64ZM511.62,108.36c.19-1.89.54-3.2.41-4.48-1.22-12.23-2.03-24.53-3.96-36.65-1.72-10.82-4.76-21.4-11.41-30.51-6.17-8.46-11.93-7.79-16.64,1.51-6.67,13.17-10.56,27.14-13.13,41.57-1.92,10.76-1.92,10.64,8.4,14.51,11.94,4.48,23.79,9.19,36.32,14.05Zm-62.27,251.54c.77-12.67-10.25-27.59-24.45-33.11-12.64-4.91-30.39-.12-38.96,10.51-11.09,13.76-12.36,31.51-3.26,45.49,7.25,11.13,21.29,18.29,31.28,15.47-18.13-5.74-22.06-19.67-22.06-36.24,6.98,3.18,14.04,5.92,20.28-.73,6.08-6.47,3.65-13-1.28-19.06,11.46-4.36,28.92-2.79,38.43,17.66Zm135.21-66.3c8.58-12.46,7.89-30.27-1.47-40.42-6.98-7.57-15.68-11.57-26.4-9.99-15.73,2.31-27.53,24.41-18.15,42.68.18-3.17.34-6.05.55-9.82,6.06,4.48,11.56,5.57,17.06.27,6.16-5.93,2.97-11.56-.58-17.2,19.21-4.35,35.4,13.6,28.99,34.47Zm19.6,79.63c-14.26,1.93-25.36,8.24-34.17,18.58-1.24,1.46-1.36,3.87-2,5.84,2.11.62,4.29,1.95,6.31,1.73,13.27-1.4,24.07-7.9,33.15-17.31,1.44-1.49,2.11-4.57,1.72-6.64-.2-1.08-3.5-1.58-5.01-2.19Z"/>
    <path d="m148.87,924.28c15.33,16.08,35.07,25.79,53.08,37.86,19.2,12.86,38.68,25.29,58.09,37.84,17.83,11.53,35.79,22.87,53.59,34.46,22.14,14.41,44.11,29.09,66.27,43.48,27.86,18.08,55.86,35.94,83.74,53.98,9.91,6.42,19.57,13.23,29.49,19.62,22.2,14.3,44.53,28.41,66.75,42.69,11.33,7.28,22.54,14.76,33.8,22.14,14.74,9.66,30.42,12.17,46.91,5.36,10.17-4.2,17.44-11.96,23.24-21.18,12.84-20.4,25.69-40.81,38.65-61.14,19.21-30.15,38.57-60.22,57.78-90.37,38.05-59.72,76.02-119.5,114.08-179.22,18.58-29.15,37.32-58.2,55.91-87.34,25.4-39.81,50.73-79.66,76.07-119.51,14.18-22.31,28.26-44.68,42.46-66.97,5.03-7.9,7.6-16.06,4.88-25.52-2.05-7.13-6.99-11.74-12.79-15.33-15.24-9.42-30.73-18.42-46.14-27.58-34.39-20.44-68.81-40.85-103.18-61.32-30.2-17.99-60.35-36.06-90.52-54.1-1.4-.84-2.76-1.73-3.69-3.6,6.34,2.71,12.76,5.26,19.01,8.15,30.38,14.05,60.81,27.99,91.03,42.38,28.89,13.75,57.56,27.95,86.29,42.02,19.06,9.34,38.19,18.54,57.02,28.31,11.26,5.84,21.65,12.96,28.48,24.29,9.88,16.38,10.59,32.76.94,49.45-30.77,53.2-61.54,106.41-92.28,159.63-28.49,49.33-56.91,98.72-85.44,148.03-20.8,35.95-41.82,71.77-62.61,107.72-25.85,44.72-51.5,89.56-77.37,134.27-16.47,28.48-33.15,56.85-49.81,85.21-5.55,9.44-10.66,19.25-17.17,27.99-21.05,28.25-59.22,38.07-91.08,23.12-10.41-4.89-20.11-11.64-29.38-18.56-32.11-23.99-63.88-48.44-95.8-72.69-26.19-19.9-52.41-39.77-78.62-59.65-32.17-24.4-64.32-48.81-96.52-73.17-29.16-22.07-58.59-43.79-87.48-66.22-15.99-12.41-31.64-25.38-46.43-39.18-10.19-9.51-17.26-21.71-21.31-35.33Z"/>
    <path d="m815.34,468.1c7.86,3.1,15.04,6.14,19.98,12.5,2.46,3.17.61,6.22-1.79,8.91-9.87,11.04-19.61,22.2-29.51,33.21-35.39,39.36-70.84,78.66-106.24,118.01-23.71,26.35-47.39,52.73-71.02,79.15-8.93,9.98-9.45,10.1-17.88-.09-3.06-3.7-5.73-7.72-8.59-11.58-2.97-4.01-2.31-7.65.93-11.19,6.85-7.49,13.57-15.11,20.46-22.55,23.98-25.88,48.04-51.69,72.01-77.58,26.56-28.68,53.02-57.47,79.62-86.12,12.33-13.28,24.86-26.37,37.38-39.48,1.26-1.32,3.06-2.13,4.64-3.19Z"/>
    <path d="m664.47,1056.08c-1.21,3.18-1.87,6.73-3.71,9.49-9.2,13.79-18.53,27.49-28.15,40.99-7.66,10.75-14.9,12.24-25.91,5.26-16.53-10.48-32.93-21.18-49.16-32.11-10.38-6.98-11.06-13.71-3.46-23.83,9.68-12.89,19.53-25.67,28.75-38.88,6.14-8.78,14.8-10.85,23.94-4.85,15.82,10.38,31.98,20.24,47.87,30.52,4.68,3.03,9.68,6.24,9.83,13.41Z"/>
    <path d="m544.29,980.96c-.97,2.2-1.53,4.7-2.96,6.54-11.3,14.57-22.65,29.11-34.22,43.47-7.02,8.73-14.32,9.08-25.92,1.47-15.79-10.37-31.48-20.91-47.18-31.42-7.89-5.28-9.35-12.97-3.43-20.4,7.05-8.84,14.48-17.38,21.81-25.99,4.74-5.57,9.42-11.22,14.46-16.51,5.28-5.55,12.03-6.39,18.47-2.36,16.74,10.46,33.39,21.06,50,31.72,4.74,3.04,8.81,6.74,8.96,13.48Z"/>
    <path d="m507.84,853c-7.77,9.2-14.65,17.7-21.9,25.86-25.52,28.74-51.15,57.37-76.79,86-2.21,2.47-4.65,4.74-7.1,6.98-5.15,4.71-10.03,5.36-15.87,1.88-6.13-3.66-12.18-7.46-18.13-11.39-5.38-3.55-6.38-8.59-2.17-13.58,5.79-6.85,12.1-13.26,18.22-19.82,17.59-18.84,35.21-37.66,52.8-56.5,9.65-10.34,19.21-20.77,28.93-31.04,5.15-5.44,6.74-5.76,13.54-2.52,9.25,4.4,18.35,9.09,28.46,14.13Z"/>
    <path d="m685.53,1019.59c-2.77-.98-5.82-1.49-8.26-3-16.47-10.24-32.82-20.68-49.19-31.09-1.68-1.07-3.32-2.24-4.8-3.56-5.25-4.68-6.39-10.38-2.3-16,9.79-13.43,19.75-26.74,30.08-39.75,5.46-6.88,13.64-7.53,21.02-2.81,15.37,9.83,30.75,19.63,46.13,29.45,3.96,2.53,8.22,5.09,8.51,10.33.17,3.11,0,6.91-1.61,9.35-8.86,13.44-18.21,26.56-27.38,39.8-2.91,4.2-6.56,7.04-12.2,7.28Z"/>
    <path d="m567.56,946.19c-6.1-3.08-11.7-5.4-16.78-8.57-10.56-6.58-20.85-13.6-31.24-20.44-3.04-2-6.04-4.07-9.11-6-8.98-5.66-10.27-11.84-3.56-20.16,8.56-10.62,17.47-20.97,26.24-31.41,1.71-2.04,3.39-4.13,5.32-5.95,5.39-5.11,11.99-6.28,18.27-2.52,12.8,7.67,25.39,15.72,38.02,23.67,3.65,2.29,7.35,4.55,10.72,7.22,8.79,6.97,9.23,12.72,2.09,21.56-6.79,8.41-13.5,16.88-20.26,25.31-2.81,3.51-5.26,7.41-8.55,10.38-3.01,2.7-6.94,4.38-11.14,6.92Z"/>
    <path d="m784.59,884.73c-1.28,2.97-2.13,6.23-3.92,8.85-7.2,10.55-14.7,20.88-22.05,31.32-6.13,8.69-13.7,10.22-22.7,4.57-15.3-9.62-30.61-19.25-45.94-28.82-9.22-5.76-10.5-12.39-3.92-21.13,7.39-9.82,14.77-19.64,22.26-29.39,8.47-11.02,14.76-11.72,26.27-4.15,13.03,8.57,26.44,16.55,39.58,24.97,4.9,3.14,9.9,6.48,10.42,13.79Z"/>
    <path d="m569.62,819.8c1.33-2.77,2.18-5.93,4.06-8.26,6.99-8.68,14.19-17.21,21.59-25.54,3.29-3.7,7.08-7.02,10.96-10.11,4.05-3.23,8.76-3.23,13.09-.58,16.02,9.81,32.03,19.63,47.85,29.76,8.09,5.18,8.93,13.01,2.94,20.48-7.91,9.86-15.77,19.75-23.62,29.66-7.88,9.94-14.25,10.89-24.87,4.04-14.94-9.65-30-19.11-45-28.66-3.82-2.43-6.95-5.3-7-10.79Z"/>
    <path d="m835.5,811.42c-1.2,2.84-1.98,5.96-3.68,8.46-6.34,9.34-12.96,18.5-19.52,27.69-6.64,9.29-12.87,10.74-22.51,4.64-15-9.5-29.88-19.21-44.66-29.05-6.86-4.57-8.04-10.75-3.14-17.35,7.73-10.41,15.72-20.63,23.92-30.67,5.11-6.26,10.71-6.66,17.54-2.38,15.05,9.44,30.19,18.75,45.25,28.18,3.71,2.32,6.12,5.56,6.8,10.49Z"/>
    <path d="m691.97,789.89c-4.05-1.77-8.39-3.07-12.09-5.4-14.3-8.99-28.41-18.27-42.55-27.52-6.19-4.05-7.24-10.37-2.39-16.1,9.13-10.78,18.52-21.35,27.79-32.02,3.17-3.65,7.27-4.5,11.24-2.37,9.33,5.02,18.41,10.48,27.52,15.89,6.42,3.81,12.82,7.68,19.02,11.83,2.97,1.99,5.88,4.35,8.08,7.12,2.92,3.67,2.24,7.83-.57,11.43-7.25,9.3-14.58,18.54-21.91,27.78-3.56,4.49-7.31,8.73-14.16,9.34Z"/>
    <path d="m848.76,786.13c-4.99-2.53-9.53-4.45-13.69-7.01-12.68-7.81-25.22-15.85-37.8-23.81-7.73-4.89-8.98-10.44-3.57-17.86,6.75-9.27,13.7-18.39,20.75-27.44,4.2-5.39,9.63-6.58,15.4-3.11,15.04,9.03,30.05,18.14,44.83,27.6,7.92,5.07,8.99,11.14,3.66,18.6-6.65,9.31-13.49,18.5-20.7,27.39-1.99,2.45-5.56,3.61-8.87,5.65Z"/>
    <path d="m745.96,722.47c-3.32-1.39-6.9-2.36-9.91-4.24-14.08-8.77-28.09-17.65-41.95-26.76-8.11-5.33-8.51-8.95-2.13-16.55,6.95-8.28,14.14-16.37,21.31-24.47,5.66-6.39,11.82-7.26,19.06-2.89,12.92,7.8,25.83,15.62,38.74,23.43.99.6,2,1.19,2.95,1.86,8.91,6.26,9.5,10.76,2.68,19.14-6.51,8-12.91,16.08-19.37,24.11-2.85,3.55-6.36,5.81-11.38,6.35Z"/>
    <path d="m339.4,944.99c-6.97-.17-11.25-4.81-16.06-7.75-10.6-6.48-20.86-13.52-31.25-20.35-7.3-4.8-8.35-10.29-2.37-16.39,9.65-9.84,19.63-19.35,29.67-28.79,4.01-3.77,9.75-4.23,14.26-1.49,13.45,8.17,26.89,16.35,40.18,24.77,7.2,4.56,7.96,8.56,2.39,15.02-9.01,10.44-18.34,20.61-27.92,30.53-2.17,2.25-5.9,3.01-8.9,4.46Z"/>
    <path d="m895.02,721.77c-3.34-1.24-6.18-1.82-8.51-3.24-14.99-9.19-29.9-18.51-44.76-27.91-4.82-3.05-5.91-9.28-2.4-13.89,6.34-8.34,12.77-16.61,19.43-24.7,4.91-5.96,9.16-6.91,15.75-3.08,14.63,8.52,29.13,17.27,43.49,26.23,6.15,3.84,7.4,9.45,3.44,15.45-5.95,8.99-12.26,17.77-18.84,26.31-1.72,2.24-5.03,3.26-7.6,4.83Z"/>
    <path d="m827.67,625.56c-1.44,3.16-2.01,5.49-3.37,7.22-6.06,7.7-12.16,15.38-18.59,22.77-6.3,7.26-10.29,8.09-18.63,3.09-14.74-8.84-29.25-18.09-43.68-27.43-5.86-3.79-6.58-8.49-2.07-13.88,7.03-8.41,14.4-16.55,21.89-24.55,4.15-4.43,9.42-5.29,15.49-1.73,14.58,8.55,28.94,17.51,43.13,26.7,2.58,1.67,3.96,5.21,5.83,7.81Z"/>
    <path d="m629.95,641.46c-1.66,2.79-2.45,4.84-3.84,6.33-10.02,10.69-20.08,21.33-30.29,31.83-4.97,5.11-8.67,5.18-14.05,1.43-12.38-8.61-24.82-17.14-37.32-25.57-5.59-3.77-5.86-3.99-1.23-8.7,9.56-9.73,19.03-19.56,29.04-28.82,8.16-7.54,11.15-7.46,20.74-1.85,9.88,5.78,19.82,11.47,29.48,17.6,2.86,1.81,4.86,4.96,7.48,7.74Z"/>
    <path d="m815.61,536.54c4.94,2.31,9.01,3.78,12.63,6,12.03,7.38,23.94,14.95,35.79,22.62,6.3,4.08,7.47,8.7,2.96,14.68-6.1,8.09-12.73,15.81-19.51,23.34-3.79,4.21-8.75,4.36-14.57.89-8.95-5.33-17.72-10.96-26.57-16.47-4.79-2.98-9.64-5.88-14.34-9-7.53-4.99-8.2-9.9-2.33-16.8,5.16-6.07,10.22-12.26,15.77-17.95,2.85-2.92,6.7-4.87,10.17-7.31Z"/>
    <path d="m934.25,662.48c-2.3-.85-4.81-1.37-6.88-2.61-13.79-8.26-27.55-16.59-41.2-25.08-7.53-4.68-8.18-9.01-2.82-15.98,5.07-6.59,9.99-13.3,15.31-19.69,5.76-6.91,10.09-7.73,17.84-3.18,13.17,7.73,26.22,15.69,39.17,23.8,7,4.39,7.98,10.12,3.22,16.92-4.47,6.4-9.12,12.69-13.82,18.92-2.65,3.52-5.71,6.6-10.82,6.9Z"/>
    <path d="m394.49,885.39c-2.02-.65-4.28-.93-6.02-2.02-13.91-8.68-27.85-17.33-41.52-26.4-5.66-3.75-5.5-7.36-.73-12.25,6.26-6.41,12.51-12.85,18.69-19.34,4.34-4.56,10.21-5.73,15.26-2.64,13.43,8.22,26.86,16.46,40.2,24.85,6.96,4.37,7.46,7.46,2.26,13.48-5.2,6.04-10.37,12.15-16.09,17.69-3.15,3.06-7.39,5.01-11.13,7.46-.31-.28-.61-.55-.92-.83Z"/>
    <path d="m491.98,450.76c-2.72,3.21-4.78,5.75-6.96,8.18-1.88,2.09-1.69,3.88.63,5.34,2.8,1.76,5.57,3.64,8.56,5.05,24.63,11.59,49.98,14.13,76.07,5.54,15.76-5.19,28.17-15.29,39.37-27.18,2.7-2.87,5.95-5.22,8.95-7.81.38.22.76.43,1.14.65-1.91,4.9-3.52,9.94-5.77,14.68-10.13,21.31-27.27,34.19-49.61,40.63-26.04,7.5-50.64,2.85-74.13-9.41-6.26-3.26-11.96-7.59-18.25-11.65-3.07,4.65-6.12,9.27-9.56,14.48-3.51-9.41-4.48-18.15,1.31-26.11,6.6-9.07,15.69-13.55,28.26-12.39Z"/>
    <path d="m972.85,609.75c-3.53-1.36-6.17-1.96-8.38-3.29-13.3-8.03-26.64-16-39.66-24.46-6.55-4.26-7.29-8.23-2.81-14.61,5.05-7.18,10.73-13.95,16.55-20.54,3.68-4.16,8.93-4.32,15.56-.39,12.53,7.44,24.94,15.11,37.14,23.08,7.24,4.73,7.96,9.89,3.03,16.86-4.31,6.1-8.63,12.23-13.46,17.91-2.06,2.43-5.42,3.76-7.98,5.44Z"/>
    <path d="m881.84,555.62c-2.87-1.08-5-1.56-6.79-2.62-13.36-7.9-26.73-15.81-39.96-23.94-8.65-5.32-9.1-8.01-2.79-16,4.62-5.86,9.51-11.54,14.59-17.02,5.29-5.7,10.08-6.45,16.93-2.51,13.37,7.7,26.64,15.58,39.83,23.59,5.71,3.47,6.63,7.96,2.66,13.42-5.17,7.12-10.52,14.15-16.33,20.75-1.96,2.23-5.55,3.01-8.14,4.33Z"/>
    <path d="m670.58,599.38c-1.63,2.68-2.58,5.04-4.2,6.78-5.55,5.97-11.25,11.82-17.07,17.52-3.74,3.66-8.25,4.36-12.79,1.56-12.43-7.65-24.79-15.4-37.13-23.19-3.36-2.12-4.57-5.07-1.56-8.28,6.36-6.79,12.77-13.53,19.43-20.02,4.03-3.92,8.92-4.24,13.77-1.37,11.57,6.85,23.15,13.68,34.55,20.81,2.03,1.27,3.2,3.89,5,6.19Z"/>
    <path d="m680.54,587.61c-3.03-1.5-6.38-2.85-9.43-4.71-10.73-6.54-21.49-13.04-31.95-20.01-4.98-3.32-4.87-6.36-.72-10.56,5.02-5.09,10.06-10.16,15.22-15.11,5.21-5,9.01-5.1,15.05-1.28,8.97,5.67,18.09,11.09,27.12,16.65,2.54,1.56,5.17,3.05,7.46,4.93,2.62,2.14,3.58,5.11,1.08,7.86-6.25,6.87-12.69,13.58-19.19,20.22-.93.95-2.62,1.17-4.64,2.01Z"/>
    <path d="m715.37,550.31c-2.52-1.1-5.05-1.91-7.3-3.23-10.31-6.02-20.62-12.05-30.77-18.33-6.94-4.29-7.14-6.91-1.41-12.8,4.52-4.65,9.1-9.24,13.81-13.7,4.78-4.53,8.76-4.7,14.34-1.26,9.29,5.71,18.65,11.3,27.95,16.99,1.84,1.12,3.68,2.29,5.31,3.69,2.49,2.14,3.15,5.01.92,7.5-5.76,6.42-11.74,12.65-17.81,18.77-1.17,1.18-3.19,1.53-5.04,2.37Z"/>
    <path d="m748.99,515.47c-2.29-.78-4.16-1.09-5.69-1.98-11.45-6.65-22.82-13.43-34.23-20.15-4.13-2.43-4.68-5.28-1.2-8.77,5.39-5.41,10.72-10.87,16.09-16.29,2.56-2.58,5.71-3.01,8.67-1.23,11.77,7.09,23.44,14.36,35.11,21.62,3.95,2.45,3.82,5.42.84,8.64-4.63,5-9.11,10.14-13.91,14.96-1.52,1.53-3.88,2.21-5.69,3.19Z"/>
    <path d="m403.7,790.47c1.81.65,4.06,1.02,5.79,2.16,14.4,9.46,28.69,19.09,43.04,28.63,3.78,2.51,3.4,4.99.5,8.01-2.4,2.51-4.31,5.48-6.6,8.11-3.65,4.18-8.63,5.76-12.92,3.19-14.37-8.59-28.68-17.3-42.69-26.45-5.71-3.73-6.09-6.09-2.07-11.5,3.2-4.3,7.76-7.6,11.81-11.23.65-.58,1.84-.56,3.13-.92Z"/>
    <path d="m779.91,483.48c-2.77-.98-5.28-1.47-7.38-2.67-10.87-6.21-21.79-12.35-32.36-19.04-4.87-3.09-4.59-4.84-.44-8.95,3.89-3.85,7.73-7.76,11.74-11.49,5.2-4.83,8.49-5.19,14.69-1.56,9.57,5.6,19.15,11.21,28.54,17.11,6,3.77,6.27,6.52,1.58,12-3.34,3.9-6.9,7.64-10.62,11.18-1.59,1.51-3.85,2.32-5.75,3.41Z"/>
  </g>
</svg>