<svg width="771" height="792" viewBox="0 0 771 792" fill="none" xmlns="http://www.w3.org/2000/svg">
<g clip-path="url(#clip0_397_306)">
<path d="M169.661 48.03C168.421 48.82 167.091 49.5 165.961 50.43C122.321 86.13 90.6307 130.98 66.6407 181.49C48.9807 218.67 36.9407 257.75 32.2107 298.72C27.3007 341.26 29.6107 383.47 39.9707 425.23C48.0007 457.59 60.0407 488.25 76.5307 517.15C101.491 560.88 134.701 597.37 175.011 627.37C189.431 638.1 204.471 647.98 219.261 658.21C220.681 659.19 222.281 659.89 224.601 660.4C211.071 639.63 212.131 619.4 225.991 597.97C256.471 663.74 308.541 707.11 370.371 742.69C360.881 732.99 352.401 724.32 342.971 714.67C346.371 713.95 348.011 713.61 350.391 713.1C349.081 712.14 348.331 711.28 347.401 710.94C334.581 706.3 329.741 695.49 326.441 683.62C325.511 680.29 325.201 676.74 325.041 673.27C324.891 670.19 325.891 668.65 329.601 670.27C354.981 681.36 381.461 685.18 408.721 680.12C419.921 678.04 430.771 673.85 441.631 670.18C445.241 668.96 446.811 669.28 446.521 673.19C445.551 686.04 441.061 697.59 432.001 706.77C429.191 709.62 424.431 710.56 419.661 712.8C422.291 713.45 424.171 713.91 426.771 714.55C420.051 725.44 410.371 732.81 401.451 741.32C407.491 740.67 442.981 716.92 459.011 704.36C477.031 690.25 493.731 674.75 508.501 657.23C523.361 639.59 535.481 620.14 546.321 599C560.481 619.95 560.331 640.22 545.911 660.68C546.411 660.89 546.901 661.1 547.401 661.31C550.361 659.67 553.401 658.19 556.251 656.38C600.471 628.31 640.081 595.03 671.931 553.12C695.401 522.24 712.881 488.24 724.871 451.35C739.371 406.73 744.331 360.94 741.091 314.3C737.821 267.3 725.311 222.64 704.811 180.24C681.561 132.15 650.601 89.85 610.071 54.81C605.561 50.91 600.831 47.28 596.821 42.54C599.641 44.27 602.551 45.86 605.251 47.75C648.911 78.37 685.091 116.12 713.011 161.6C735.471 198.17 751.751 237.39 760.931 279.33C769.311 317.62 772.851 356.36 768.421 395.52C757.051 496.22 713.761 580.24 636.601 646.3C605.281 673.11 569.491 693.03 533.311 712.42C486.531 737.49 440.101 763.23 393.691 788.98C388.131 792.07 383.971 792.55 378.221 789.35C334.341 764.85 290.381 740.48 246.201 716.5C217.961 701.17 189.391 686.48 162.991 667.98C124.801 641.22 92.4907 608.76 66.1707 570.21C40.7607 532.99 22.7107 492.62 11.3307 449.03C-0.179268 404.9 -2.81927 360.21 2.95073 315.2C13.1907 235.26 46.0807 165.57 100.161 105.8C119.031 84.95 140.221 66.78 162.851 50.21C164.641 48.9 166.561 47.77 168.411 46.55C168.831 47.04 169.241 47.53 169.661 48.02V48.03Z" fill="black"/>
<path d="M347.92 38.5599C347.21 38.6599 346.359 38.5299 345.829 38.8899C325.819 52.3599 316.42 72.7999 309.85 94.8099C302.5 119.42 302.11 144.66 303.84 170.12C305.45 193.77 307.82 217.3 313.62 240.29C318.87 261.08 325.14 281.61 331 302.25C331.21 303 331.76 303.66 331.74 303.62C341.92 298.7 351.81 293.8 361.84 289.21C363.06 288.65 365.72 289.24 366.59 290.26C370.35 294.69 373.85 299.37 377.09 304.2C377.95 305.48 377.92 307.67 377.64 309.33C376.3 317.37 374.42 325.34 373.41 333.42C373 336.66 373.78 340.31 374.97 343.42C377.28 349.44 380.26 355.21 383.6 362.45C386.33 356.85 388.09 352.08 390.799 347.94C396.59 339.08 392.97 330.23 391.45 321.36C390.75 317.27 389.52 313.27 388.73 309.19C388.46 307.79 388.18 305.84 388.89 304.87C393.09 299.15 397.59 293.63 402.13 287.86C413.46 293.26 424.6 298.58 436.49 304.24C437.82 300.41 439.84 295.73 441.09 290.85C447.13 267.34 454.09 243.99 458.6 220.18C465.19 185.37 467.59 150.06 462.97 114.72C460.34 94.6099 454.93 75.1199 442.68 58.4499C438.21 52.3599 432.3 47.3299 426.98 41.8699C425.73 40.5899 424.21 39.5699 422.81 38.4199C423.03 38.0399 423.26 37.6499 423.48 37.2699C426.88 39.2099 430.62 40.7299 433.62 43.1599C446.43 53.5499 454.71 67.1899 459.45 82.7399C472.83 126.62 475.5 171.32 469.09 216.7C464.56 248.82 455.43 279.71 445.46 310.44C444.79 312.51 445.07 315.38 445.98 317.38C450.72 327.76 452.95 338.62 452.14 349.91C451.93 352.79 449.82 356.62 447.42 358.04C441.06 361.79 434.07 364.46 427.32 367.55C426.61 367.88 425.389 367.95 425.21 368.43C423.2 373.96 421.36 379.55 419.39 385.35C429.8 385.35 434.95 391.55 434.06 401.64C433.88 403.62 434.169 405.98 435.109 407.68C449.329 433.46 458.45 460.97 463.1 489.96C466.38 510.42 467.6 530.95 465.19 551.7C464.32 559.18 461.18 563.35 454.57 566.27C433.49 575.58 411.34 579.49 388.48 579.86C363.71 580.26 339.79 576.1 316.94 566.17C311.06 563.61 307.79 560.13 307.09 553.35C305 532.99 305.5 512.73 308.39 492.54C312.17 466.15 319.88 440.93 331.7 417C332.73 414.91 333.92 412.91 335.12 410.9C337 407.74 338.22 404.84 337.41 400.7C336.03 393.61 341.18 387.52 349.29 386.11C347.44 380.61 345.75 375.16 343.7 369.84C343.36 368.97 341.48 368.67 340.29 368.14C333 364.91 325.67 361.76 318.42 358.43C314.1 356.45 312.68 352.91 313 348.21C313.84 335.97 315.69 324.11 322.41 313.42C323.28 312.04 322.5 309.26 321.84 307.34C310.89 275.29 301.56 242.77 297.95 209.03C293.17 164.3 295.88 120.1 311.65 77.4799C317.34 62.0999 326.35 48.7499 340.47 39.5599C342.3 38.3699 344.42 37.6099 346.41 36.6499C346.91 37.2799 347.41 37.8999 347.9 38.5299L347.92 38.5599ZM344.17 404.45C345.21 405.66 346.85 408.94 349.43 410.06C351.23 410.84 354.72 409.18 356.74 407.67C360.32 404.99 362.299 400.91 359.49 396.83C357.98 394.63 354.69 392.46 352.17 392.42C348.11 392.36 344.07 398.28 344.17 404.45ZM426.359 403.48C426.41 398.66 421.71 392.36 418.1 392.41C413.42 392.48 410.259 395.31 410.109 399.58C409.939 404.66 415.12 410.52 419.81 410.54C422.8 410.55 426.32 406.75 426.35 403.48H426.359ZM369.44 371.96C364.03 371.58 360.14 371.3 355.24 370.95C356.98 374.36 358.25 376.87 359.66 379.64C362.91 377.09 365.54 375.02 369.44 371.96ZM413.75 370.69C409.56 371.17 406.38 371.53 402 372.03C405.41 374.59 407.68 376.3 410.48 378.4C411.54 375.9 412.44 373.77 413.75 370.69Z" fill="black"/>
<path d="M492.101 0C500.011 2.83 508.101 5.24 515.791 8.57C562.951 28.93 601.921 59.86 633.651 100.15C657.631 130.59 675.371 164.31 686.111 201.47C695.371 233.52 700.541 266.16 695.731 299.68C693.011 318.65 688.041 336.82 676.471 352.59C664.331 369.14 647.631 372.36 630.091 361.67C613.541 351.58 601.181 337.12 589.321 322.29C569.201 297.13 551.081 270.6 536.791 241.61C536.241 240.5 535.851 239.31 535.281 237.89C557.301 235.65 569.331 221.32 579.511 204.34C581.701 200.69 585.241 197.85 588.161 194.64C584.311 189.48 580.641 184.16 576.551 179.2C573.901 175.98 573.811 173.1 575.881 169.7C577.091 167.72 578.051 165.57 578.941 163.41C582.321 155.16 580.971 148.79 574.591 142.53C567.601 135.66 567.781 135.73 571.221 126.71C574.141 119.08 569.981 113.18 565.371 107.84C562.941 105.02 560.191 103.01 561.481 98.47C561.821 97.27 559.171 94.86 557.491 93.52C555.221 91.71 552.991 90.36 553.611 86.75C555.011 78.6 552.051 72.42 544.621 68.76C539.731 66.36 537.591 63.43 538.641 57.74C539.041 55.58 537.361 52.59 535.841 50.59C523.031 33.74 509.761 17.27 493.541 3.48C492.791 2.84 491.811 2.48 490.941 1.99C491.331 1.33 491.721 0.68 492.111 0.02L492.101 0Z" fill="black"/>
<path d="M277.82 1.23992C270.87 8.35992 263.64 15.2199 257.06 22.6599C249.34 31.3799 242.01 40.4499 234.94 49.6999C233.25 51.9099 232.53 55.4699 232.68 58.3399C232.92 63.0999 230.25 65.3899 226.85 67.3499C217.87 72.5399 216.03 76.5399 217.19 86.7099C217.4 88.5699 215.66 91.2499 214.03 92.5799C211.15 94.9299 207.85 96.4999 208.73 101.23C208.94 102.32 207.5 103.76 206.73 104.99C204.39 108.75 201.93 112.44 199.67 116.26C197.18 120.47 197.32 124.69 199.54 129.1C201.59 133.18 201.32 136.98 197.46 140.27C185.45 150.5 188.24 159.76 193.84 169.6C196.2 173.75 196.11 176.8 193.21 180.4C190.08 184.28 187.54 188.65 184.37 192.49C182.03 195.32 182.95 196.66 185.6 198.31C187.56 199.53 189.23 201.26 190.92 202.87C191.49 203.42 191.75 204.3 192.14 205.03C201.54 222.42 213.21 236.84 235.45 237.4C235.33 238.54 235.48 239.44 235.14 240.08C213.62 281.17 188.36 319.65 154.6 351.82C148.28 357.84 139.91 362.14 131.83 365.77C121.29 370.5 111.28 367.6 102.58 360.26C90.8801 350.38 85.1001 336.97 80.8801 322.81C71.4901 291.23 72.5101 259.34 78.6301 227.37C88.1001 177.82 109.42 133.73 140.78 94.4999C171.39 56.1999 209.42 27.3999 254.7 8.39992C262.13 5.27992 269.86 2.89992 277.46 0.169922C277.58 0.519922 277.71 0.879922 277.83 1.22992L277.82 1.23992Z" fill="black"/>
<path d="M258.552 394.27C271.382 405.34 284.232 416.4 297.042 427.5C300.692 430.66 304.362 433.82 307.722 437.27C308.772 438.34 309.552 440.56 309.222 441.95C305.822 456.18 302.182 470.34 298.572 484.52C298.462 484.95 298.052 485.31 297.482 486.14C294.472 484.4 291.522 482.67 288.552 480.97C267.272 468.84 244.762 459.39 222.332 449.64C203.312 441.37 182.822 437.32 164.252 427.94C144.532 417.98 126.182 406.53 115.102 386.43C113.532 383.58 112.262 380.56 110.242 376.32C125.712 379.93 138.742 376.77 150.692 368.85C162.172 361.24 171.742 351.66 179.482 339.71C191.412 350.21 199.822 363.58 214.052 373.06C213.712 367.54 213.452 363.29 213.112 357.75C216.512 360.09 218.972 361.63 221.272 363.38C236.612 375.02 244.802 390.63 246.812 409.64C246.932 410.8 246.832 412.04 247.222 413.1C247.592 414.09 248.472 414.89 249.132 415.77C249.962 415.08 251.282 414.53 251.542 413.67C252.592 410.18 253.272 406.58 254.192 403.05C254.912 400.28 255.782 397.54 256.582 394.79C257.242 394.62 257.892 394.45 258.552 394.28V394.27Z" fill="black"/>
<path d="M474.601 485.65C471.301 473.34 469.101 461.27 464.721 450.04C461.391 441.48 463.291 436.74 470.001 431.33C483.211 420.68 495.751 409.18 508.591 398.07C510.031 396.82 511.631 395.75 513.921 394.01C515.391 402.44 516.701 409.91 518.001 417.38C518.721 417.4 519.451 417.42 520.171 417.44C520.671 416.1 521.391 414.79 521.631 413.4C525.421 391.39 535.371 373.25 554.501 360.84C555.441 360.23 556.471 359.77 558.411 358.74V373.46C572.261 364.16 581.121 351.62 591.331 339.83C609.651 361.2 627.471 382.61 661.361 376.36C658.741 381.68 656.991 386.04 654.571 389.99C644.931 405.76 630.331 415.85 614.361 424.18C598.091 432.67 581.081 439.17 562.991 442.81C559.641 443.48 556.821 446.5 553.541 447.93C542.721 452.65 531.591 456.68 520.981 461.82C506.171 468.99 491.731 476.91 477.131 484.5C476.421 484.87 475.671 485.17 474.601 485.66V485.65Z" fill="black"/>
<path d="M310.132 573C361.022 593.08 411.032 592.86 461.152 573.32C461.642 574.59 462.322 575.49 462.272 576.35C461.782 584.45 461.872 592.68 460.442 600.62C458.162 613.26 447.872 618.31 437.222 622.41C412.242 632.04 386.472 634.69 360.132 630C346.652 627.6 333.722 623.19 321.952 615.95C320.002 614.75 318.002 613.27 316.692 611.45C308.422 599.92 309.252 586.93 310.122 572.99L310.132 573Z" fill="black"/>
<path d="M311.801 57.5098C308.521 73.5598 305.351 88.4498 298.691 102.41C282.841 135.61 267.271 168.95 251.351 202.12C248.051 209 243.951 215.54 239.821 221.98C235.741 228.35 231.791 229.65 224.891 226.55C211.391 220.49 204.001 208.94 198.801 195.76C198.341 194.61 199.281 192.62 200.061 191.31C203.291 185.9 206.621 180.53 210.131 175.3C211.201 173.71 212.971 172.59 214.451 171.29C220.691 165.82 227.251 160.69 228.571 151.57C228.821 149.85 230.821 147.52 232.471 147.03C238.601 145.19 241.331 140.52 243.891 135.34C244.931 133.23 246.551 131.33 248.181 129.59C254.451 122.93 262.921 117.95 264.231 107.56C264.411 106.16 266.461 104.9 267.791 103.74C271.091 100.87 274.881 98.4398 277.761 95.2098C288.381 83.2698 298.711 71.0698 309.181 58.9998C309.571 58.5498 310.261 58.3698 311.781 57.5198L311.801 57.5098Z" fill="black"/>
<path d="M458.861 57.3498C459.991 58.3898 461.241 59.3198 462.241 60.4698C472.341 71.9698 482.291 83.5998 492.521 94.9798C495.571 98.3698 499.381 101.07 502.781 104.15C503.731 105.01 504.991 106.02 505.211 107.13C506.691 114.47 512.091 119.02 516.631 124.31C521.581 130.07 525.871 136.39 530.511 142.41C532.541 145.04 534.551 147.32 538.551 147.49C540.231 147.56 543.121 150.63 543.151 152.38C543.311 160.51 549.531 164.25 553.961 169.5C560.331 177.06 566.041 185.19 571.861 193.2C572.461 194.02 572.281 195.88 571.791 196.95C565.901 209.82 558.001 220.82 544.391 226.69C540.061 228.56 536.391 228.18 533.651 224.62C529.821 219.63 526.041 214.49 523.031 208.98C502.251 170.84 483.691 131.62 467.421 91.3598C463.111 80.6798 460.681 69.2398 457.391 58.1498C457.871 57.8798 458.361 57.6098 458.841 57.3398L458.861 57.3498Z" fill="black"/>
<path d="M317.482 622.46C363.492 641.35 409.042 640.68 455.032 622.49C456.982 630.89 455.902 638.63 453.182 646.17C450.262 654.27 445.182 660.66 437.402 664.78C403.572 682.7 369.612 683.37 335.422 665.82C319.492 657.65 315.252 640.76 315.832 627.61C315.902 625.93 316.862 624.29 317.472 622.47L317.482 622.46Z" fill="black"/>
<path d="M420.501 236.08C420.191 247.38 416.872 257.55 410.572 266.65C396.212 287.41 370.081 287.85 356.021 266.95C344.911 250.44 342.832 232.36 351.572 213.87C357.802 200.7 371.511 193.22 386.331 194.55C401.311 195.89 413.822 205.92 417.542 219.98C418.932 225.24 419.531 230.71 420.491 236.08H420.501Z" fill="black"/>
<path d="M478.331 520.67C477.601 514.58 476.641 508.21 476.241 501.81C476.161 500.56 477.951 498.61 479.341 497.93C499.891 487.84 521.221 479.74 543.911 476.31C551.131 475.22 558.821 476.92 566.251 477.71C572.371 478.35 578.441 479.44 584.511 480.5C587.661 481.05 589.951 480.43 592.601 478.22C597.821 473.87 603.611 470.2 609.281 466.41C628.291 453.71 645.391 439.13 656.811 418.85C657.191 418.18 657.831 417.66 659.061 416.28C660.381 429.76 660.401 442.24 652.871 452.92C647.071 461.13 640.551 469.14 633.061 475.78C622.101 485.49 609.831 493.74 595.811 498.58C591.601 500.03 586.661 500.5 582.231 499.96C570.041 498.46 557.951 496.15 545.801 494.29C544.641 494.11 543.301 494.76 542.121 495.23C520.981 503.64 499.851 512.09 478.341 520.68L478.331 520.67Z" fill="black"/>
<path d="M112.399 416.16C113.919 417.59 114.779 418.13 115.259 418.9C127.769 439.09 144.489 455.01 164.369 467.82C169.789 471.31 174.799 475.46 180.139 479.09C181.349 479.91 183.229 480.2 184.729 480.05C191.679 479.33 198.629 478.52 205.539 477.47C227.199 474.17 247.459 479.78 267.409 487.16C275.829 490.27 284.029 493.99 292.399 497.26C295.219 498.36 296.129 499.94 295.719 502.97C294.909 508.81 294.499 514.71 293.819 521.6C285.479 517.87 278.359 514.3 270.969 511.47C257.789 506.42 244.159 502.45 231.249 496.82C221.789 492.7 213.489 497.72 204.639 497.8C203.649 497.8 202.659 498.08 201.689 498.31C187.839 501.54 175.049 498.71 162.859 491.83C149.019 484.02 135.569 475.71 125.549 463.03C114.969 449.65 110.649 434.4 112.409 416.17L112.399 416.16Z" fill="black"/>
<path d="M95.7812 487.79C98.1913 489.3 99.5913 490.12 100.931 491.03C122.181 505.54 145.021 517.02 168.451 527.61C175.651 530.86 181.191 528.75 187.361 527.2C197.371 524.69 207.181 521.35 217.251 519.19C221.991 518.17 227.231 518.49 232.091 519.22C251.181 522.07 270.201 525.4 289.271 528.39C293.031 528.98 294.321 530.75 294.121 534.4C293.971 537.04 294.241 539.74 294.661 542.36C295.351 546.68 293.451 547.68 289.571 547.03C270.371 543.81 251.071 541.08 231.991 537.26C226.191 536.1 221.871 536.54 216.341 538.73C205.111 543.19 193.271 546.27 181.501 549.17C172.641 551.35 164.501 547.28 156.401 544.28C139.711 538.09 124.341 529.64 111.001 517.68C103.311 510.79 98.0812 502.54 96.1312 492.34C95.9212 491.25 95.9513 490.11 95.7812 487.8V487.79Z" fill="black"/>
<path d="M676.421 489.84C674.731 494.55 673.631 499.59 671.251 503.92C662.811 519.31 649.151 529.14 633.711 536.34C623.501 541.1 612.741 544.84 601.971 548.2C597.781 549.51 592.571 549.59 588.351 548.38C574.931 544.55 561.771 539.83 548.481 535.55C547.331 535.18 545.911 535.36 544.661 535.57C523.021 539.3 501.391 543.08 479.751 546.82C479.321 546.89 478.821 546.59 477.971 546.36C477.971 541.62 477.761 536.84 478.121 532.1C478.201 531 480.101 529.35 481.361 529.13C502.831 525.41 524.301 521.67 545.851 518.46C549.941 517.85 554.481 519.05 558.621 520.12C570.701 523.25 582.681 526.77 594.731 530.03C595.851 530.33 597.301 530.08 598.411 529.62C624.581 519.01 649.311 505.68 672.861 490.11C673.511 489.68 674.331 489.49 675.071 489.19C675.511 489.4 675.961 489.61 676.401 489.82L676.421 489.84Z" fill="black"/>
<path d="M583.389 632.2C583.389 622.91 583.399 614.42 583.359 605.93C583.359 605.33 583.109 604.62 582.739 604.14C574.549 593.54 566.319 582.96 558.279 572.61C548.539 573.96 538.239 576.17 527.869 576.65C510.449 577.46 493.539 573.47 476.789 569.03C474.469 568.42 472.779 566.73 474.569 564.77C477.549 561.51 472.879 553.33 480.749 553.93C490.669 554.68 500.459 557.57 510.369 557.94C521.769 558.36 533.229 557.04 544.669 556.48C548.819 556.28 552.989 555.73 557.119 555.93C568.119 556.47 577.579 560.41 583.979 569.82C587.339 574.76 590.579 579.82 593.309 585.12C601.919 601.81 596.329 616.36 585.999 630.04C585.449 630.77 584.559 631.24 583.379 632.19L583.389 632.2Z" fill="black"/>
<path d="M187.512 631.22C186.082 630.18 185.232 629.85 184.842 629.24C174.842 613.7 170.542 600.64 179.802 584.51C182.772 579.33 186.332 574.47 189.852 569.64C197.952 558.51 209.642 555.07 222.462 556.52C245.342 559.11 267.992 559.38 290.432 553.58C293.872 552.69 295.102 553.73 295.722 557.21C297.682 568.19 297.892 568.47 287.022 570.7C276.122 572.94 265.122 574.89 254.082 576.25C241.392 577.81 228.882 576.02 216.602 572.46C215.562 572.16 213.612 573.07 212.842 574.03C205.072 583.73 197.452 593.55 189.832 603.37C189.282 604.07 188.802 605.03 188.772 605.89C188.572 611.09 188.592 616.3 188.382 621.5C188.262 624.45 187.862 627.4 187.512 631.22Z" fill="black"/>
</g>
<defs>
<clipPath id="clip0_397_306">
<rect width="770.35" height="791.54" fill="white"/>
</clipPath>
</defs>
</svg>
